<?xml version="1.0" encoding="UTF-8"?>
<svg style="-webkit-backface-visibility:visible;-webkit-user-select:none;transform-origin:50% 50% 0px;transform:matrix3d(0.950579272381248, 0.31048195908802373, 0, 0, -0.31048195908802373, 0.950579272381248, 0, 0, 0, 0, 1, 0, 0, 0, 0, 1);z-index:0" viewBox="-20 -20 540 540" xmlns="http://www.w3.org/2000/svg" xmlns:xlink="http://www.w3.org/1999/xlink">

<style>
	a { cursor: pointer; outline: none; }
	.item .sector { fill: #fff; stroke: #eee; }
	.item:hover .sector, .item:focus .sector { 
		fill: #E1F4FE; 
	}
	.menu-trigger { fill: #eee; pointer-events: auto; }
	.menu-trigger:hover, .menu-trigger:focus { cursor: pointer; fill: #FFBBC4; }
	symbol { overflow: visible; }
svg {  
	-webkit-filter: drop-shadow(0px 0px 3px rgba(0,0,0,0.3));      
	filter: drop-shadow(0px 0px 3px rgba(0,0,0,0.3));
}
</style>

<symbol id="copy" class="icon icon-copy" viewBox="0 0 89 89">
	<svg viewBox="0 0 33 69" version="1.1">
			<defs>
					<rect id="path-1" x="-18" y="18" width="69" height="33" rx="4"></rect>
			</defs>
			<g id="Page-1" stroke="none" stroke-width="1" fill="none" fill-rule="evenodd">
					<g id="Rectangle-27-Copy-12" transform="translate(16.500000, 34.500000) rotate(90.000000) translate(-16.500000, -34.500000) ">
							<use fill="#DBF4FF" fill-rule="evenodd" xlink:href="#path-1"></use>
							<rect stroke="#0096DC" stroke-width="2" x="-17" y="19" width="67" height="31" rx="4"></rect>
					</g>
			</g>
	</svg>
</symbol>
<symbol id="arrBlue" class="icon icon-arrBlue" viewBox="0 0 89 89">
	<svg version="1.1" viewBox="0 0 13 37">
		<g transform="translate(6.5 18) rotate(-90) translate(-18 -6.5)">
		<path transform="translate(9.77 6.5) scale(-1 1) translate(-9.77 -6.5)" d="m0.77 6.5h18" stroke="#2C7CE9" stroke-linecap="square" stroke-width="3"/>
		<polygon points="18 0 19.857 6.5 18 13 35.643 6.5" fill="#2C7CE9"/>
		</g>
	</svg>
</symbol>
<symbol id="arrGreen" class="icon icon-arrGreen" viewBox="0 0 89 89">
	<svg version="1.1" viewBox="0 0 13 37">
		<g transform="translate(6.5 18) rotate(-90) translate(-18 -6.5)">
		<path transform="translate(9.77 6.5) scale(-1 1) translate(-9.77 -6.5)" d="m0.77 6.5h18" stroke="#7ED321" stroke-linecap="square" stroke-width="3"/>
		<polygon points="18 0 19.857 6.5 18 13 35.643 6.5" fill="#7ED321"/>
		</g>
	</svg>
</symbol>
<symbol id="arrYellow" class="icon icon-arrYellow" viewBox="0 0 89 89">
	<svg version="1.1" viewBox="0 0 13 37">
		<g transform="translate(6.5 18) rotate(-90) translate(-18 -6.5)">
		<path transform="translate(9.77 6.5) scale(-1 1) translate(-9.77 -6.5)" d="m0.77 6.5h18" stroke="#F5A623" stroke-linecap="square" stroke-width="3"/>
		<polygon points="18 0 19.857 6.5 18 13 35.643 6.5" fill="#F5A623"/>
		</g>
	</svg>
</symbol>
<symbol id="arrRed" class="icon icon-arrRed" viewBox="0 0 89 89">
	<svg version="1.1" viewBox="0 0 13 37">
		<g transform="translate(6.5 18) rotate(-90) translate(-18 -6.5)">
		<path transform="translate(9.77 6.5) scale(-1 1) translate(-9.77 -6.5)" d="m0.77 6.5h18" stroke="#D0021B" stroke-linecap="square" stroke-width="3"/>
		<polygon points="18 0 19.857 6.5 18 13 35.643 6.5" fill="#D0021B"/>
		</g>
	</svg>
</symbol>
<symbol id="trash" class="icon icon-trash" viewBox="0 0 89 89">
	<svg version="1.1" viewBox="0 0 49 49">
		<defs>
			<circle id="c" cx="24" cy="10" r="10"/>
			<circle id="b" cx="8" cy="41" r="8"/>
			<circle id="a" cx="41" cy="41" r="8"/>
		</defs>
		<g fill="none" fill-rule="evenodd">
			<g transform="translate(24.5 24.5) rotate(90) translate(-24.5 -24.5)">
				<use fill="#DBF4FF" fill-rule="evenodd" xlink:href="#c"/>
				<circle cx="24" cy="10" r="9.5" stroke="#0096DC"/>
				<path d="M17.25,25.7 L9,39" stroke="#0096DC" stroke-linecap="square" stroke-width="2"/>
				<path transform="translate(36.5 32) scale(-1 1) translate(-36.5 -32)" d="M40.25,25.7 L32,39" stroke="#0096DC" stroke-linecap="square" stroke-width="2"/>
				<use fill="#DBF4FF" fill-rule="evenodd" xlink:href="#b"/>
				<circle cx="8" cy="41" r="7.5" stroke="#0096DC"/>
				<use fill="#DBF4FF" fill-rule="evenodd" xlink:href="#a"/>
				<circle cx="41" cy="41" r="7.5" stroke="#0096DC"/>
			</g>
		</g>
	</svg>
</symbol>
<symbol id="ext" class="icon icon-ext" viewBox="0 0 89 89">
	<svg version="1.1" viewBox="0 0 71 71">
		<g fill="none" fill-rule="evenodd">
			<rect transform="translate(35.5 35.5) rotate(45) translate(-35.5 -35.5)" x="11" y="11" width="49" height="49" fill="#0096DC"/>
			<circle cx="35" cy="35" r="14" stroke="#fff" stroke-width="4"/>
		</g>
	</svg>
</symbol>
<symbol id="and" class="icon icon-and" viewBox="0 0 89 89">
	<svg version="1.1" viewBox="0 0 72 72" >
		<g fill="none" fill-rule="evenodd">
			<rect transform="translate(36.059 36.059) rotate(45) translate(-36.059 -36.059)" x="11" y="11" width="50.118" height="50.118" fill="#0096DC"/>
			<text transform="translate(36.529 36.5) rotate(180) translate(-36.529 -36.5)" fill="#FFFFFF" font-family="Arial" font-size="42" font-weight="normal">
			<tspan x="24" y="51">&amp;</tspan>
		</text>
		</g>
	</svg>
</symbol>
<symbol id="or" class="icon icon-or" viewBox="0 0 89 89">
	<svg version="1.1" viewBox="0 0 71 71" >
		<g fill="none" fill-rule="evenodd">
		<rect transform="translate(35.439 35.5) rotate(45) translate(-35.439 -35.5)" x="10.38" y="10.441" width="50.118" height="50.118" fill="#0096DC"/>
		<path d="m30.279 24.076v25.059" stroke="#fff" stroke-linecap="square" stroke-width="5"/>
		<path d="m42.809 24.076v25.059" stroke="#fff" stroke-linecap="square" stroke-width="5"/>
		</g>
	</svg>
</symbol>
<symbol id="etap" class="icon icon-etap" viewBox="0 0 89 89">
	<svg version="1.1" viewBox="0 0 40 79" xmlns="http://www.w3.org/2000/svg" xmlns:xlink="http://www.w3.org/1999/xlink">
	<defs>
		<rect id="b" x="-18" y="18" width="69" height="33" rx="4"/>
		<rect id="a" x="-11" y="28" width="69" height="33" rx="4"/>
	</defs>
	<g transform="translate(20 39.5) rotate(180) translate(-20 -39.5)">
		<g transform="translate(16.5 34.5) rotate(90) translate(-16.5 -34.5)">
			<rect x="-17" y="19" width="67" height="31" rx="4" stroke="#0096DC" stroke-width="2" fill="#DBF4FF" />
		</g>
		<g transform="translate(23.5 44.5) rotate(90) translate(-23.5 -44.5)">
			<rect x="-10" y="29" width="67" height="31" rx="4" stroke="#0096DC" stroke-width="2" fill="#DBF4FF" />
		</g>
	</g>
	</svg>
</symbol>

<a class="item"  data-svg-origin="250 250"  onclick="parent.addEtap('copy')">
<path class="sector" d="m250 250h250a250 250 0 0 0 -47.746 -146.95z"  />
<use transform="rotate(72 432.6 190.67)" x="388.10284423828125" y="146.16873168945312" width="89" height="89" xlink:href="#copy"/>
</a>
<a class="item" transform="matrix(.80901 -.58778 .58778 .80901 -99.201 194.69)"  data-svg-origin="250 250" onclick="parent.myAddEdge(1)">
<path class="sector" d="m250 250h250a250 250 0 0 0 -47.746 -146.95z" />
<use transform="rotate(72 432.6 190.67)" x="388.10284423828125" y="146.16873168945312" width="89" height="89" xlink:href="#arrBlue"/>
</a>
<a class="item" transform="matrix(.30901 -.95105 .95105 .30901 -65.018 410.51)"  data-svg-origin="250 250"  onclick="parent.myAddEdge(2)">
<path class="sector" d="m250 250h250a250 250 0 0 0 -47.746 -146.95z" />
<use transform="rotate(72 432.6 190.67)" x="388.10284423828125" y="146.16873168945312" width="89" height="89" xlink:href="#arrGreen"/>
</a>
<a class="item" transform="matrix(-.30901 -.95105 .95105 -.30901 89.49 565.02)"  data-svg-origin="250 250"  onclick="parent.myAddEdge(3)">
<path class="sector" d="m250 250h250a250 250 0 0 0 -47.746 -146.95z" />
<use transform="rotate(72 432.6 190.67)" x="388.10284423828125" y="146.16873168945312" width="89" height="89" xlink:href="#arrYellow"/>
</a>
<a class="item" transform="matrix(-.80901 -.58778 .58778 -.80901 305.31 599.2)"  data-svg-origin="250 250"  onclick="parent.myAddEdge(4)">
<path class="sector" d="m250 250h250a250 250 0 0 0 -47.746 -146.95z" />
<use transform="rotate(72 432.6 190.67)" x="388.10284423828125" y="146.16873168945312" width="89" height="89" xlink:href="#arrRed"/>
</a>
<a class="item" transform="matrix(-1,0,0,-1,500,500)"  data-svg-origin="250 250" onclick="parent.openMiniTemplate()" >
<path class="sector" d="m250 250h250a250 250 0 0 0 -47.746 -146.95z" />
<use transform="rotate(72 432.6 190.67)" x="388.10284423828125" y="146.16873168945312" width="89" height="89" xlink:href="#trash"/>
</a>
<a class="item" transform="matrix(-.80901 .58778 -.58778 -.80901 599.2 305.31)"  data-svg-origin="250 250" onclick="parent.addEtap(6)">
<path class="sector" d="m250 250h250a250 250 0 0 0 -47.746 -146.95z" />
<use transform="rotate(72 432.6 190.67)" x="388.10284423828125" y="146.16873168945312" width="89" height="89" xlink:href="#ext"/>
</a>
<a class="item" transform="matrix(-.30901 .95105 -.95105 -.30901 565.02 89.49)"  data-svg-origin="250 250"  onclick="parent.addEtap(4)">
<path class="sector" d="m250 250h250a250 250 0 0 0 -47.746 -146.95z" />
<use transform="rotate(72 432.6 190.67)" x="388.10284423828125" y="146.16873168945312" width="89" height="89" xlink:href="#and"/>
</a>
<a class="item" transform="matrix(.30901 .95105 -.95105 .30901 410.51 -65.018)"  data-svg-origin="250 250" onclick="parent.addEtap(5)">
<path class="sector" d="m250 250h250a250 250 0 0 0 -47.746 -146.95z" />
<use transform="rotate(72 432.6 190.67)" x="388.10284423828125" y="146.16873168945312" width="89" height="89" xlink:href="#or"/>
</a>
<a class="item" transform="matrix(.80901 .58778 -.58778 .80901 194.69 -99.201)"  data-svg-origin="250 250" onclick="parent.addEtap(3)">
<path class="sector" d="m250 250h250a250 250 0 0 0 -47.746 -146.95z" />
<use transform="rotate(72 432.6 190.67)" x="388.10284423828125" y="146.16873168945312" width="89" height="89" xlink:href="#etap"/>
</a>
<g class="trigger menu-trigger" role="button" onclick="parent.closePie()">
<circle cx="250" cy="250" r="45" stroke="#fff" stroke-width="4"/>
<g transform="rotate(26,250,250)" fill="#444">
	<rect width="40" height="6" x="230" y="247"  />
	<rect width="6" height="40" x="247" y="230"  />
</g>
</g>
</svg>
