<svg xmlns="http://www.w3.org/2000/svg" xmlns:xlink="http://www.w3.org/1999/xlink" viewBox="-2 -2 504 504" style="-webkit-backface-visibility:visible;z-index:0;transform-origin:50% 50% 0;transform:matrix3d(-.9557804041212007,-.2940813137516806,0,0,.2940813137516806,-.9557804041212007,0,0,0,0,1,0,0,0,0,1);-webkit-user-select:none;margin:0 auto" display="block">
<style>
#menu {
    display: block;
    margin: 0 auto;
    /*overflow: visible;*/ 
}

a {
    cursor: pointer; 
    outline: none;
}


.item .sector {
    fill: #eee;
    stroke: #fff;
}

.item:hover .sector, .item:focus .sector {
    fill: #ccc;
}

.menu-trigger {
    fill: #EA2A55;
    pointer-events: auto; 
}

.menu-trigger:hover, .menu-trigger:focus {
    cursor: pointer;
}
.icon {
    cursor: pointer;
}
symbol {
}
</style>
  <g id="symbolsContainer">
    <symbol class="icon icon-" id="icon-1" viewBox="0 0 69 69">
			<svg version="1.1" viewBox="0 0 18 24">
				<g fill="none" fill-rule="evenodd">
					<path d="m18 3.0625v0.9375h-1.25l-1.5 18.188c0 0.5-0.17708 0.92708-0.53125 1.2812s-0.78125 0.53125-1.2812 0.53125h-8.8125c-0.5 0-0.92708-0.17708-1.2812-0.53125s-0.53125-0.78125-0.53125-1.2812l-1.5-18.188h-1.3125v-0.9375h5v-1.25c0-0.5 0.17708-0.92708 0.53125-1.2812s0.78125-0.53125 1.2812-0.53125h4.375c0.5 0 0.92708 0.17708 1.2812 0.53125s0.53125 0.78125 0.53125 1.2812v1.25h5zm-12.062-1.25v1.25h6.125v-1.25c0-0.58334-0.29166-0.875-0.875-0.875h-4.375c-0.58334 0-0.875 0.29166-0.875 0.875zm8.4375 20.312l1.4375-18.125h-13.562l1.4375 18.125v0.0625c0 0.58334 0.3125 0.875 0.9375 0.875h8.8125c0.625 0 0.9375-0.29166 0.9375-0.875v-0.0625zm-5.8125-1.0625v-15.062h0.875v15.062h-0.875zm4.4375-15.062l-0.6875 15.062h-0.875l0.625-15.062h0.9375zm-7.125 0l0.6875 15.062h-0.875l-0.6875-15.062h0.875z" fill="#0096DC"/>
				</g>
			</svg>
    </symbol>
    <symbol class="icon icon-" id="icon-2" viewBox="0 0 69 69">
      <rect fill="none" stroke="#111" width="100%" height="100%"/>
      <text fill="#222" x="50%" y="50%" dy=".3em" text-anchor="middle" font-size="1.2em">
        2
      </text>
    </symbol>
    <symbol class="icon icon-" id="icon-3" viewBox="0 0 69 69">
      <rect fill="none" stroke="#111" width="100%" height="100%"/>
      <text fill="#222" x="50%" y="50%" dy=".3em" text-anchor="middle" font-size="1.2em">
        3
      </text>
    </symbol>
    <symbol class="icon icon-" id="icon-4" viewBox="0 0 69 69">
      <rect fill="none" stroke="#111" width="100%" height="100%"/>
      <text fill="#222" x="50%" y="50%" dy=".3em" text-anchor="middle" font-size="1.2em">
        4
      </text>
    </symbol>
    <symbol class="icon icon-" id="icon-5" viewBox="0 0 69 69">
      <rect fill="none" stroke="#111" width="100%" height="100%"/>
      <text fill="#222" x="50%" y="50%" dy=".3em" text-anchor="middle" font-size="1.2em">
        5
      </text>
    </symbol>
    <symbol class="icon icon-" id="icon-6" viewBox="0 0 69 69">
      <rect fill="none" stroke="#111" width="100%" height="100%"/>
      <text fill="#222" x="50%" y="50%" dy=".3em" text-anchor="middle" font-size="1.2em">
        6
      </text>
    </symbol>
    <symbol class="icon icon-" id="icon-7" viewBox="0 0 69 69">
      <rect fill="none" stroke="#111" width="100%" height="100%"/>
      <text fill="#222" x="50%" y="50%" dy=".3em" text-anchor="middle" font-size="1.2em">
        7
      </text>
    </symbol>
    <symbol class="icon icon-" id="icon-8" viewBox="0 0 69 69">
      <rect fill="none" stroke="#111" width="100%" height="100%"/>
      <text fill="#222" x="50%" y="50%" dy=".3em" text-anchor="middle" font-size="1.2em">
        8
      </text>
    </symbol>
    <symbol class="icon icon-" id="icon-9" viewBox="0 0 69 69">
      <rect fill="none" stroke="#111" width="100%" height="100%"/>
      <text fill="#222" x="50%" y="50%" dy=".3em" text-anchor="middle" font-size="1.2em">
        9
      </text>
    </symbol>
    <symbol class="icon icon-" id="icon-10" viewBox="0 0 69 69">
      <rect fill="none" stroke="#111" width="100%" height="100%"/>
      <text fill="#222" x="50%" y="50%" dy=".3em" text-anchor="middle" font-size="1.2em">
        10
      </text>
    </symbol>
  </g>
  <g id="itemsContainer">
    <a class="item" id="item-1" tabindex="0" data-svg-origin="250 250">
      <path fill="none" stroke="#111" d="M330 250h170a250 250 0 0 0-44.8-142.8l-139.5 97.1A80 80 0 0 1 330 250" class="sector"/>
      <use xlink:href="#icon-1" width="69" height="69" x="412.1" y="153.8" transform="rotate(72.6 446.6 188.3)"/>
    </a>
    <a class="item" id="item-2" tabindex="0" transform="rotate(-36 250 250) scale(.99999)" data-svg-origin="250 250">
      <path fill="none" stroke="#111" d="M330 250h170a250 250 0 0 0-44.8-142.8l-139.5 97.1A80 80 0 0 1 330 250" class="sector"/>
      <use xlink:href="#icon-2" width="69" height="69" x="412.1" y="153.8" transform="rotate(72.6 446.6 188.3)"/>
    </a>
    <a class="item" id="item-3" tabindex="0" transform="rotate(-72 250 250) scale(.99999)" data-svg-origin="250 250">
      <path fill="none" stroke="#111" d="M330 250h170a250 250 0 0 0-44.8-142.8l-139.5 97.1A80 80 0 0 1 330 250" class="sector"/>
      <use xlink:href="#icon-3" width="69" height="69" x="412.1" y="153.8" transform="rotate(72.6 446.6 188.3)"/>
    </a>
    <a class="item" id="item-4" tabindex="0" transform="rotate(-108 250 250) scale(.99999)" data-svg-origin="250 250">
      <path fill="none" stroke="#111" d="M330 250h170a250 250 0 0 0-44.8-142.8l-139.5 97.1A80 80 0 0 1 330 250" class="sector"/>
      <use xlink:href="#icon-4" width="69" height="69" x="412.1" y="153.8" transform="rotate(72.6 446.6 188.3)"/>
    </a>
    <a class="item" id="item-5" tabindex="0" transform="rotate(-144 250 250) scale(.99999)" data-svg-origin="250 250">
      <path fill="none" stroke="#111" d="M330 250h170a250 250 0 0 0-44.8-142.8l-139.5 97.1A80 80 0 0 1 330 250" class="sector"/>
      <use xlink:href="#icon-5" width="69" height="69" x="412.1" y="153.8" transform="rotate(72.6 446.6 188.3)"/>
    </a>
    <a class="item" id="item-6" tabindex="0" transform="rotate(180 250 250)" data-svg-origin="250 250">
      <path fill="none" stroke="#111" d="M330 250h170a250 250 0 0 0-44.8-142.8l-139.5 97.1A80 80 0 0 1 330 250" class="sector"/>
      <use xlink:href="#icon-6" width="69" height="69" x="412.1" y="153.8" transform="rotate(72.6 446.6 188.3)"/>
    </a>
    <a class="item" id="item-7" tabindex="0" transform="rotate(144 250 250) scale(.99999)" data-svg-origin="250 250">
      <path fill="none" stroke="#111" d="M330 250h170a250 250 0 0 0-44.8-142.8l-139.5 97.1A80 80 0 0 1 330 250" class="sector"/>
      <use xlink:href="#icon-7" width="69" height="69" x="412.1" y="153.8" transform="rotate(72.6 446.6 188.3)"/>
    </a>
    <a class="item" id="item-8" tabindex="0" transform="rotate(108 250 250) scale(.99999)" data-svg-origin="250 250">
      <path fill="none" stroke="#111" d="M330 250h170a250 250 0 0 0-44.8-142.8l-139.5 97.1A80 80 0 0 1 330 250" class="sector"/>
      <use xlink:href="#icon-8" width="69" height="69" x="412.1" y="153.8" transform="rotate(72.6 446.6 188.3)"/>
    </a>
    <a class="item" id="item-9" tabindex="0" transform="rotate(72 250 250) scale(.99999)" data-svg-origin="250 250">
      <path fill="none" stroke="#111" d="M330 250h170a250 250 0 0 0-44.8-142.8l-139.5 97.1A80 80 0 0 1 330 250" class="sector"/>
      <use xlink:href="#icon-9" width="69" height="69" x="412.1" y="153.8" transform="rotate(72.6 446.6 188.3)"/>
    </a>
    <a class="item" id="item-10" tabindex="0" transform="rotate(36 250 250) scale(.99999)" data-svg-origin="250 250">
      <path fill="none" stroke="#111" d="M330 250h170a250 250 0 0 0-44.8-142.8l-139.5 97.1A80 80 0 0 1 330 250" class="sector"/>
      <use xlink:href="#icon-10" width="69" height="69" x="412.1" y="153.8" transform="rotate(72.6 446.6 188.3)"/>
    </a>
  </g>

	<g id="trigger" class="trigger menu-trigger" role="button" transform="rotate(-18, 250, 250)">
		<circle cx="250" cy="250" r="70"></circle>
		<svg version="1.1" x="220" y="220" viewBox="0 0 100 100">
		<g fill="none" fill-rule="evenodd">
		<polygon points="12.805 1.2891 7.6914 6.4023 12.805 11.516 11.516 12.805 6.4023 7.6914 1.2891 12.805 0 11.516 5.1133 6.4023 0 1.2891 1.2891 0 6.4023 5.1133 11.516 0" fill="#fff"/>
		</g>
		</svg>
	</g>
		
</svg>
