
                <!-- SVG Menu Generated By CIRCULUS.SVG :: https://sarasoueidan.com/tools/circulus -->
                <svg xmlns="http://www.w3.org/2000/svg" xmlns:xlink="http://www.w3.org/1999/xlink" viewBox="-2 -2 504 504" id="menu" _vimium-has-onclick-listener="" style="transform-origin: 50% 50% 0px; transform: translate3d(0px, 0px, 0px); touch-action: none; user-select: none;">
                    <style>
                        #menu {
                            display: block;
                            margin: 0 auto;
                            /*overflow: visible;*/ /* uncomment this if you are using bouncing animations*/
                        }

                        a {
                            cursor: pointer; /* SVG &lt;a&gt; elements don't get this by default, so you need to explicitly set it */
                            outline: none;
                        }

                        /* You can change these default styles any way you want */

                        .item .sector {
                            transition: all .1s linear;
                            fill: #fff;
                            stroke: #111;
                        }


                        .item:hover .sector, .item:focus .sector {
                            fill: #eee;
                        }

                        .menu-trigger {
                            fill: #EA2A55;
                            pointer-events: auto; /* KEEP THIS to make sure it stays clickable even when SVG's pointer events is disabled */
                        }

                        .menu-trigger:hover, .menu-trigger:focus {
                            cursor: pointer;
                        }
                        symbol {
                            overflow: visible; /* KEEP THIS so that text will not get cut off it it is wider than the icon width */
                        }
                    </style>
                    <g id="symbolsContainer">	<symbol class="icon icon-" id="icon-1" viewBox="0 0 55 55"><!--Replace the contents of this symbol with the content of your icon--><rect fill="none" stroke="#111" stroke-width="1" width="100%" height="100%"></rect><text fill="#222" x="50%" y="50%" dy=".3em" text-anchor="middle" font-size="1.2em">1</text></symbol>

	<symbol class="icon icon-" id="icon-2" viewBox="0 0 55 55"><!--Replace the contents of this symbol with the content of your icon--><rect fill="none" stroke="#111" stroke-width="1" width="100%" height="100%"></rect><text fill="#222" x="50%" y="50%" dy=".3em" text-anchor="middle" font-size="1.2em">2</text></symbol>

	<symbol class="icon icon-" id="icon-3" viewBox="0 0 55 55"><!--Replace the contents of this symbol with the content of your icon--><rect fill="none" stroke="#111" stroke-width="1" width="100%" height="100%"></rect><text fill="#222" x="50%" y="50%" dy=".3em" text-anchor="middle" font-size="1.2em">3</text></symbol>

	<symbol class="icon icon-" id="icon-4" viewBox="0 0 55 55"><!--Replace the contents of this symbol with the content of your icon--><rect fill="none" stroke="#111" stroke-width="1" width="100%" height="100%"></rect><text fill="#222" x="50%" y="50%" dy=".3em" text-anchor="middle" font-size="1.2em">4</text></symbol>

	<symbol class="icon icon-" id="icon-5" viewBox="0 0 55 55"><!--Replace the contents of this symbol with the content of your icon--><rect fill="none" stroke="#111" stroke-width="1" width="100%" height="100%"></rect><text fill="#222" x="50%" y="50%" dy=".3em" text-anchor="middle" font-size="1.2em">5</text></symbol>

	<symbol class="icon icon-" id="icon-6" viewBox="0 0 55 55"><!--Replace the contents of this symbol with the content of your icon--><rect fill="none" stroke="#111" stroke-width="1" width="100%" height="100%"></rect><text fill="#222" x="50%" y="50%" dy=".3em" text-anchor="middle" font-size="1.2em">6</text></symbol>

	<symbol class="icon icon-" id="icon-7" viewBox="0 0 55 55"><!--Replace the contents of this symbol with the content of your icon--><rect fill="none" stroke="#111" stroke-width="1" width="100%" height="100%"></rect><text fill="#222" x="50%" y="50%" dy=".3em" text-anchor="middle" font-size="1.2em">7</text></symbol>

	<symbol class="icon icon-" id="icon-8" viewBox="0 0 55 55"><!--Replace the contents of this symbol with the content of your icon--><rect fill="none" stroke="#111" stroke-width="1" width="100%" height="100%"></rect><text fill="#222" x="50%" y="50%" dy=".3em" text-anchor="middle" font-size="1.2em">8</text></symbol>

	<symbol class="icon icon-" id="icon-9" viewBox="0 0 55 55"><!--Replace the contents of this symbol with the content of your icon--><rect fill="none" stroke="#111" stroke-width="1" width="100%" height="100%"></rect><text fill="#222" x="50%" y="50%" dy=".3em" text-anchor="middle" font-size="1.2em">9</text></symbol>

	<symbol class="icon icon-" id="icon-10" viewBox="0 0 55 55"><!--Replace the contents of this symbol with the content of your icon--><rect fill="none" stroke="#111" stroke-width="1" width="100%" height="100%"></rect><text fill="#222" x="50%" y="50%" dy=".3em" text-anchor="middle" font-size="1.2em">10</text></symbol>

</g>
                    <g id="itemsContainer">		<a class="item" id="item-1" xlink:href="" xlink:title="" role="link" tabindex="0" xlink:target="_parent" transform="matrix(1,0,0,1,0,0)" data-svg-origin="250 250"><path fill="none" stroke="#111" stroke-width="1" class="sector" d="M250,250 l250,0 A250,250 0 0,0 461.0819813755038,116.04330125525087 z"></path><use xlink:href="#icon-1" width="55" height="55" x="422.2410888671875" y="164.4698486328125" transform="rotate(73.8 449.7410888671875 191.9698486328125)"></use></a>
		<a class="item" id="item-2" xlink:href="" xlink:title="" role="link" tabindex="0" xlink:target="_parent" transform="matrix(0.80902,-0.58778,0.58778,0.80902,-177.93889584044626,220.27432682273826)" data-svg-origin="250 250"><path fill="none" stroke="#111" stroke-width="1" class="sector" d="M250,250 l250,0 A250,250 0 0,0 461.0819813755038,116.04330125525087 z"></path><use xlink:href="#icon-2" width="55" height="55" x="422.2410888671875" y="164.4698486328125" transform="rotate(73.8 449.7410888671875 191.9698486328125)"></use></a>
		<a class="item" id="item-3" xlink:href="" xlink:title="" role="link" tabindex="0" xlink:target="_parent" transform="matrix(0.30901,-0.95106,0.95106,0.30901,-192.41897610475962,503.071964129007)" data-svg-origin="250 250"><path fill="none" stroke="#111" stroke-width="1" class="sector" d="M250,250 l250,0 A250,250 0 0,0 461.0819813755038,116.04330125525087 z"></path><use xlink:href="#icon-3" width="55" height="55" x="422.2410888671875" y="164.4698486328125" transform="rotate(73.8 449.7410888671875 191.9698486328125)"></use></a>
		<a class="item" id="item-4" xlink:href="" xlink:title="" role="link" tabindex="0" xlink:target="_parent" transform="matrix(-0.30901,-0.95106,0.95106,-0.30901,-37.91132349363106,740.3697175772328)" data-svg-origin="250 250"><path fill="none" stroke="#111" stroke-width="1" class="sector" d="M250,250 l250,0 A250,250 0 0,0 461.0819813755038,116.04330125525087 z"></path><use xlink:href="#icon-4" width="55" height="55" x="422.2410888671875" y="164.4698486328125" transform="rotate(73.8 449.7410888671875 191.9698486328125)"></use></a>
		<a class="item" id="item-5" xlink:href="" xlink:title="" role="link" tabindex="0" xlink:target="_parent" transform="matrix(-0.80902,-0.58778,0.58778,-0.80902,226.570313786011,841.5312404723279)" data-svg-origin="250 250"><path fill="none" stroke="#111" stroke-width="1" class="sector" d="M250,250 l250,0 A250,250 0 0,0 461.0819813755038,116.04330125525087 z"></path><use xlink:href="#icon-5" width="55" height="55" x="422.2410888671875" y="164.4698486328125" transform="rotate(73.8 449.7410888671875 191.9698486328125)"></use></a>
		<a class="item" id="item-6" xlink:href="" xlink:title="" role="link" tabindex="0" xlink:target="_parent" transform="matrix(-1,0,0,-1,499.9999999999999,767.9134063720703)" data-svg-origin="250 250"><path fill="none" stroke="#111" stroke-width="1" class="sector" d="M250,250 l250,0 A250,250 0 0,0 461.0819813755038,116.04330125525087 z"></path><use xlink:href="#icon-6" width="55" height="55" x="422.2410888671875" y="164.4698486328125" transform="rotate(73.8 449.7410888671875 191.9698486328125)"></use></a>
		<a class="item" id="item-7" xlink:href="" xlink:title="" role="link" tabindex="0" xlink:target="_parent" transform="matrix(-0.80902,0.58778,-0.58778,-0.80902,677.9392958404462,547.6390795493319)" data-svg-origin="250 250"><path fill="none" stroke="#111" stroke-width="1" class="sector" d="M250,250 l250,0 A250,250 0 0,0 461.0819813755038,116.04330125525087 z"></path><use xlink:href="#icon-7" width="55" height="55" x="422.2410888671875" y="164.4698486328125" transform="rotate(73.8 449.7410888671875 191.9698486328125)"></use></a>
		<a class="item" id="item-8" xlink:href="" xlink:title="" role="link" tabindex="0" xlink:target="_parent" transform="matrix(-0.30901,0.95106,-0.95106,-0.30901,692.4185761047596,264.8415422430634)" data-svg-origin="250 250"><path fill="none" stroke="#111" stroke-width="1" class="sector" d="M250,250 l250,0 A250,250 0 0,0 461.0819813755038,116.04330125525087 z"></path><use xlink:href="#icon-8" width="55" height="55" x="422.2410888671875" y="164.4698486328125" transform="rotate(73.8 449.7410888671875 191.9698486328125)"></use></a>
		<a class="item" id="item-9" xlink:href="" xlink:title="" role="link" tabindex="0" xlink:target="_parent" transform="matrix(0.30901,0.95106,-0.95106,0.30901,537.9114234936311,27.54328879483755)" data-svg-origin="250 250"><path fill="none" stroke="#111" stroke-width="1" class="sector" d="M250,250 l250,0 A250,250 0 0,0 461.0819813755038,116.04330125525087 z"></path><use xlink:href="#icon-9" width="55" height="55" x="422.2410888671875" y="164.4698486328125" transform="rotate(73.8 449.7410888671875 191.9698486328125)"></use></a>
		<a class="item" id="item-10" xlink:href="" xlink:title="" role="link" tabindex="0" xlink:target="_parent" transform="matrix(0.80902,0.58778,-0.58778,0.80902,273.429686213989,-73.61743410025768)" data-svg-origin="250 250"><path fill="none" stroke="#111" stroke-width="1" class="sector" d="M250,250 l250,0 A250,250 0 0,0 461.0819813755038,116.04330125525087 z"></path><use xlink:href="#icon-10" width="55" height="55" x="422.2410888671875" y="164.4698486328125" transform="rotate(73.8 449.7410888671875 191.9698486328125)"></use></a>
</g>
                    <g id="trigger" class="trigger menu-trigger" role="button">
                        <circle cx="250" cy="250" r="35"></circle>
                        <!-- menu button label or icon goes here -->
                    </g>
                </svg>
            